<svg width="228" height="227" viewBox="0 0 228 227" fill="none" xmlns="http://www.w3.org/2000/svg">
<g filter="url(#filter0_f)">
<rect x="40.7336" y="40" width="146.495" height="146.495" rx="60" fill="#12132C"/>
</g>
<rect x="26" y="23" width="144" height="144" rx="30" fill="white"/>
<path d="M59.5208 118.245C57.6314 117.165 57.6314 114.44 59.5208 113.361L96.8026 92.056C97.6673 91.5619 98.7288 91.5619 99.5935 92.056L136.875 113.361C138.765 114.44 138.765 117.165 136.875 118.245L99.5935 139.549C98.7288 140.043 97.6673 140.043 96.8026 139.549L59.5208 118.245Z" fill="url(#paint0_linear)" fill-opacity="0.7"/>
<path d="M59.5208 99.8379C57.6314 98.7581 57.6314 96.0337 59.5208 94.954L96.8026 73.6493C97.6673 73.1552 98.7288 73.1552 99.5935 73.6493L136.875 94.954C138.765 96.0337 138.765 98.7581 136.875 99.8379L99.5935 121.143C98.7288 121.637 97.6673 121.637 96.8026 121.143L59.5208 99.8379Z" fill="url(#paint1_linear)"/>
<path d="M59.5211 76.8304C57.6316 75.7507 57.6316 73.0263 59.5211 71.9466L96.8029 50.6419C97.6676 50.1478 98.7291 50.1478 99.5937 50.6419L136.876 71.9466C138.765 73.0263 138.765 75.7507 136.876 76.8304L99.5937 98.1351C98.7291 98.6292 97.6676 98.6292 96.8029 98.1351L59.5211 76.8304Z" fill="url(#paint2_linear)"/>
<defs>
<filter id="filter0_f" x="0.733643" y="0" width="226.495" height="226.495" filterUnits="userSpaceOnUse" color-interpolation-filters="sRGB">
<feFlood flood-opacity="0" result="BackgroundImageFix"/>
<feBlend mode="normal" in="SourceGraphic" in2="BackgroundImageFix" result="shape"/>
<feGaussianBlur stdDeviation="20" result="effect1_foregroundBlur"/>
</filter>
<linearGradient id="paint0_linear" x1="98.1981" y1="85.8923" x2="98.1981" y2="147.554" gradientUnits="userSpaceOnUse">
<stop stop-color="#2E3092" stop-opacity="0"/>
<stop offset="1" stop-color="#2E3092" stop-opacity="0.8"/>
</linearGradient>
<linearGradient id="paint1_linear" x1="98.1981" y1="71.627" x2="98.1981" y2="123.165" gradientUnits="userSpaceOnUse">
<stop stop-color="#2E3092" stop-opacity="0.2"/>
<stop offset="0.669643" stop-color="#2E3092" stop-opacity="0.7"/>
<stop offset="1" stop-color="#303164" stop-opacity="0.9"/>
<stop offset="1" stop-color="#2E3092" stop-opacity="0.9"/>
</linearGradient>
<linearGradient id="paint2_linear" x1="98.1983" y1="44.018" x2="98.1983" y2="98.3168" gradientUnits="userSpaceOnUse">
<stop stop-color="#2E3092" stop-opacity="0.5"/>
<stop offset="0.813559" stop-color="#2E3092"/>
</linearGradient>
</defs>
</svg>
