<svg width="135" height="67" viewBox="0 0 135 67" fill="none" xmlns="http://www.w3.org/2000/svg">
<path d="M26.6582 -2.14577e-06V13.284H19.6022V0.215999H18.0902V30.204H19.6022V14.688H26.6582V30.744H28.1702V-2.14577e-06H26.6582ZM2.21419 27.18V15.372H13.5902V13.968H2.21419V2.844H14.0222V1.44H0.702189V28.584H4.98619C9.81019 28.584 13.0502 27.972 15.2102 26.964V25.452C12.5822 26.676 9.63019 27.18 4.87819 27.18H2.21419ZM60.7831 8.064V-2.14577e-06H59.2351V18.468H60.7831V9.468H65.5711V8.064H60.7831ZM50.6671 11.628H52.1791V0.755999H35.4391V2.16H50.6671V11.628ZM56.0311 14.688V13.284C53.7631 14.256 49.5871 14.58 44.2591 14.58H42.6751V6.984H41.1631V14.58H33.6751V15.984H44.1151C49.5871 15.984 54.0511 15.588 56.0311 14.688ZM48.6151 19.296C41.7391 19.296 35.7271 20.808 35.7271 24.984C35.7271 29.16 41.7391 30.672 48.6151 30.672C55.4911 30.672 61.5031 29.16 61.5031 24.984C61.5031 20.808 55.4911 19.296 48.6151 19.296ZM48.6151 29.268C42.8191 29.268 37.2751 28.152 37.2751 24.984C37.2751 21.816 42.8191 20.7 48.6151 20.7C54.4111 20.7 59.9551 21.816 59.9551 24.984C59.9551 28.152 54.4111 29.268 48.6151 29.268ZM95.988 1.404H70.068V2.808H94.476V22.716H95.988V1.404ZM98.328 27.54H67.944V28.944H98.328V27.54ZM130.689 10.944H106.245V7.128H130.185V0.684H104.769V2.052H128.709V5.796H104.769V12.312H130.689V10.944ZM102.213 15.552V16.92H116.649V20.952H118.161V16.92H132.597V15.552H102.213ZM128.673 23.4H106.173V19.656H104.661V30.06H130.185V19.728H128.673V23.4ZM106.173 28.692V24.732H128.673V28.692H106.173ZM31.4102 48.456H27.0902V36H23.5262V66.744H27.0902V51.876H31.4102V48.456ZM4.33819 61.668V40.356H18.4502V37.116H0.702189V64.908H12.7262C15.6782 64.908 18.9902 64.368 20.8622 63.432V60.192C18.9902 61.092 15.8222 61.668 12.9062 61.668H4.33819ZM58.9471 58.86H62.4751V36H58.9471V39.42H53.9071V42.588H58.9471V46.908H53.9071V50.076H58.9471V58.86ZM52.1071 36.756H34.8271V53.388H52.1071V36.756ZM48.5791 50.292H38.3191V39.852H48.5791V50.292ZM39.9391 63.144V56.376H36.3031V66.348H63.1231V63.144H39.9391ZM96.492 36H92.928V58.824H96.492V36ZM78.96 47.376L87.816 53.928L89.796 51.3L80.256 44.352C80.652 42.984 80.94 41.472 80.976 39.888H88.896V36.792H68.988V39.888H77.412C77.052 45.864 73.776 50.184 68.592 50.904V54.18C73.164 53.712 76.836 51.192 78.96 47.376ZM74.028 63.108V56.556H70.428V66.348H97.32V63.108H74.028ZM129.897 43.308V36H126.333V58.824H129.897V46.728H134.217V43.308H129.897ZM124.101 52.02V48.96C122.121 49.824 118.593 50.292 114.417 50.292H106.749V39.852H121.905V36.756H103.149V53.388H114.201C118.557 53.388 122.229 52.848 124.101 52.02ZM107.793 56.376H104.193V66.348H130.725V63.108H107.793V56.376Z" fill="white"/>
</svg>
