<svg width="48" height="48" viewBox="0 0 48 48" fill="none" xmlns="http://www.w3.org/2000/svg">
<circle cx="24" cy="24" r="24" fill="#2EA7FF"/>
<path d="M19.41 18.41L24 13.83L28.59 18.41L30 17L24 11L18 17L19.41 18.41Z" fill="white"/>
<path d="M19.3418 26.0566H16.7812V33H14.7246V26.0566H12.2109V24.4688H19.3418V26.0566ZM27.2754 28.9102C27.2754 29.7422 27.1211 30.4785 26.8125 31.1191C26.5039 31.7598 26.0645 32.2539 25.4941 32.6016C24.9277 32.9453 24.2812 33.1172 23.5547 33.1172C22.8281 33.1172 22.1836 32.9512 21.6211 32.6191C21.0586 32.2832 20.6191 31.8047 20.3027 31.1836C19.9902 30.5625 19.8262 29.8496 19.8105 29.0449V28.5645C19.8105 27.7285 19.9629 26.9922 20.2676 26.3555C20.5762 25.7148 21.0156 25.2207 21.5859 24.873C22.1602 24.5254 22.8125 24.3516 23.543 24.3516C24.2656 24.3516 24.9102 24.5234 25.4766 24.8672C26.043 25.2109 26.4824 25.7012 26.7949 26.3379C27.1113 26.9707 27.2715 27.6973 27.2754 28.5176V28.9102ZM25.1836 28.5527C25.1836 27.7051 25.041 27.0625 24.7559 26.625C24.4746 26.1836 24.0703 25.9629 23.543 25.9629C22.5117 25.9629 21.9668 26.7363 21.9082 28.2832L21.9023 28.9102C21.9023 29.7461 22.041 30.3887 22.3184 30.8379C22.5957 31.2871 23.0078 31.5117 23.5547 31.5117C24.0742 31.5117 24.4746 31.291 24.7559 30.8496C25.0371 30.4082 25.1797 29.7734 25.1836 28.9453V28.5527ZM30.3926 30.1055V33H28.3359V24.4688H31.7402C32.3926 24.4688 32.9688 24.5898 33.4688 24.832C33.9727 25.0703 34.3613 25.4121 34.6348 25.8574C34.9121 26.2988 35.0508 26.8008 35.0508 27.3633C35.0508 28.1953 34.752 28.8613 34.1543 29.3613C33.5605 29.8574 32.7441 30.1055 31.7051 30.1055H30.3926ZM30.3926 28.5176H31.7402C32.1387 28.5176 32.4414 28.418 32.6484 28.2188C32.8594 28.0195 32.9648 27.7383 32.9648 27.375C32.9648 26.9766 32.8574 26.6582 32.6426 26.4199C32.4277 26.1816 32.1348 26.0605 31.7637 26.0566H30.3926V28.5176Z" fill="white"/>
</svg>
