<svg width="126" height="104" viewBox="0 0 126 104" fill="none" xmlns="http://www.w3.org/2000/svg">
<g clip-path="url(#clip0)">
<path d="M42.1527 100.14C42.1527 102.271 43.8728 104.003 45.9963 104.003H122.15C124.273 104.003 125.993 102.274 125.993 100.14V31.047H42.1527V100.14Z" fill="#100C25"/>
<path d="M122.16 9.15736H46.0066C43.8831 9.15736 42.1631 10.8864 42.1631 13.0211V31.0711H126V13.0211C126 10.8864 124.28 9.15736 122.16 9.15736Z" fill="#100C25"/>
<path d="M36.1241 100.14C36.1241 102.271 37.8441 104.003 39.9676 104.003H116.121C118.244 104.003 119.964 102.274 119.964 100.14V31.047H36.1241V100.14Z" fill="#F8F8F8"/>
<path d="M116.117 9.13673H39.9642C37.8407 9.13673 36.1206 10.8658 36.1206 13.0004V31.0505H119.958V12.997C119.961 10.8658 118.241 9.13673 116.117 9.13673Z" fill="#AFAFAF"/>
<path d="M59.4112 25.059C61.8474 25.059 63.8224 23.0737 63.8224 20.6247C63.8224 18.1757 61.8474 16.1904 59.4112 16.1904C56.9749 16.1904 55 18.1757 55 20.6247C55 23.0737 56.9749 25.059 59.4112 25.059Z" fill="#100C25"/>
<path d="M58.4811 18.2494C57.2124 18.2494 56.1865 17.2182 56.1865 15.9429V6.30084C56.1865 5.18711 56.9354 4.15931 58.0228 3.94962C59.4864 3.66432 60.7756 4.78836 60.7756 6.21147V9.13673H64.6602V6.43146C64.6602 3.12807 62.1844 0.23718 58.9051 0.0171838C55.3077 -0.223438 52.3054 2.64683 52.3054 6.2149V15.7435C52.3054 18.9816 54.6888 21.8278 57.8997 22.1269C58.2417 22.1578 58.5802 22.1612 58.9119 22.1406C61.3569 21.9722 61.1551 18.2528 58.7033 18.2528H58.4811V18.2494Z" fill="#F3F3F3"/>
<path d="M94.5846 25.059C97.0209 25.059 98.9958 23.0737 98.9958 20.6247C98.9958 18.1757 97.0209 16.1904 94.5846 16.1904C92.1484 16.1904 90.1734 18.1757 90.1734 20.6247C90.1734 23.0737 92.1484 25.059 94.5846 25.059Z" fill="#100C25"/>
<path d="M93.6545 18.2494C92.3859 18.2494 91.36 17.2182 91.36 15.9429V6.30084C91.36 5.18711 92.1089 4.15931 93.1963 3.94962C94.6599 3.66432 95.949 4.78836 95.949 6.21147V9.13673H99.8336V6.43146C99.8336 3.12807 97.3579 0.23718 94.0785 0.0171838C90.4812 -0.223438 87.4788 2.64683 87.4788 6.2149V15.7435C87.4788 18.9816 89.8622 21.8278 93.0732 22.1269C93.4151 22.1578 93.7537 22.1612 94.0854 22.1406C96.5304 21.9722 96.3286 18.2528 93.8768 18.2528H93.6545V18.2494Z" fill="#F3F3F3"/>
<path d="M61.2577 41.4969H48.7183V54.102H61.2577V41.4969Z" fill="#E5E5E5"/>
<path d="M61.2577 60.0557H48.7183V72.6608H61.2577V60.0557Z" fill="#E5E5E5"/>
<path d="M61.2577 78.6144H48.7183V91.2196H61.2577V78.6144Z" fill="#E5E5E5"/>
<path d="M82.5341 41.4969H69.9947V54.102H82.5341V41.4969Z" fill="#AFAFAF"/>
<path d="M82.5341 60.0557H69.9947V72.6608H82.5341V60.0557Z" fill="#E5E5E5"/>
<path d="M82.5341 78.6144H69.9947V91.2196H82.5341V78.6144Z" fill="#E5E5E5"/>
<path d="M103.811 41.4969H91.2711V54.102H103.811V41.4969Z" fill="#AFAFAF"/>
<path d="M103.811 60.0557H91.2711V72.6608H103.811V60.0557Z" fill="#AFAFAF"/>
<path d="M103.811 78.6144H91.2711V91.2196H103.811V78.6144Z" fill="#E5E5E5"/>
<path d="M32.5267 43.7106H24.0633V49.3136H32.5267V43.7106Z" fill="#AFAFAF"/>
<path d="M36.1138 41.7478H20.4762V45.1646H36.1138V41.7478Z" fill="#100C25"/>
<path d="M48.1291 95.6991C59.1395 84.6311 59.1395 66.6862 48.1291 55.6182C37.1187 44.5502 19.2673 44.5502 8.25689 55.6182C-2.75351 66.6862 -2.75351 84.6311 8.25689 95.6991C19.2673 106.767 37.1187 106.767 48.1291 95.6991Z" fill="#100C25"/>
<path d="M50.75 80.9363C53.6481 68.4143 45.8992 55.9015 33.4424 52.9882C20.9855 50.075 8.53794 57.8645 5.63987 70.3865C2.7418 82.9086 10.4907 95.4213 22.9475 98.3346C35.4044 101.248 47.852 93.4583 50.75 80.9363Z" fill="white"/>
<path d="M15.1144 63.1219C14.9639 63.1219 14.8169 63.0634 14.704 62.95L13.7363 61.9772C13.5072 61.7503 13.5072 61.3791 13.7363 61.1488C13.9654 60.9185 14.3313 60.9185 14.5604 61.1488L15.5281 62.1216C15.7573 62.3484 15.7573 62.7197 15.5281 62.95C15.4119 63.0634 15.2648 63.1219 15.1144 63.1219Z" fill="#E5E5E5"/>
<path d="M42.4742 90.6214C42.3237 90.6214 42.1767 90.563 42.0638 90.4496L41.0961 89.4768C40.867 89.2499 40.867 88.8787 41.0961 88.6483C41.3252 88.418 41.6911 88.418 41.9202 88.6483L42.8879 89.6211C43.117 89.848 43.117 90.2193 42.8879 90.4496C42.7717 90.5664 42.6212 90.6214 42.4742 90.6214Z" fill="#E5E5E5"/>
<path d="M14.1466 90.6214C13.9962 90.6214 13.8491 90.563 13.7363 90.4496C13.5072 90.2227 13.5072 89.8514 13.7363 89.6211L14.704 88.6518C14.9331 88.4215 15.299 88.4215 15.5281 88.6518C15.7573 88.8786 15.7573 89.2499 15.5281 89.4802L14.5604 90.453C14.4441 90.5664 14.2971 90.6214 14.1466 90.6214Z" fill="#E5E5E5"/>
<path d="M41.5064 63.1219C41.356 63.1219 41.2089 63.0634 41.0961 62.95C40.867 62.7231 40.867 62.3519 41.0961 62.1216L42.0638 61.1488C42.2929 60.9185 42.6588 60.9185 42.8879 61.1488C43.117 61.3756 43.117 61.7469 42.8879 61.9772L41.9202 62.95C41.8039 63.0634 41.6535 63.1219 41.5064 63.1219Z" fill="#E5E5E5"/>
<path d="M28.2899 57.5119C29.0264 57.5119 29.6235 56.9117 29.6235 56.1713C29.6235 55.4309 29.0264 54.8307 28.2899 54.8307C27.5534 54.8307 26.9563 55.4309 26.9563 56.1713C26.9563 56.9117 27.5534 57.5119 28.2899 57.5119Z" fill="#100C25"/>
<path d="M28.2899 96.4995C29.0264 96.4995 29.6235 95.8993 29.6235 95.1589C29.6235 94.4185 29.0264 93.8183 28.2899 93.8183C27.5534 93.8183 26.9563 94.4185 26.9563 95.1589C26.9563 95.8993 27.5534 96.4995 28.2899 96.4995Z" fill="#100C25"/>
<path d="M8.89763 74.3245C9.63283 74.3245 10.2313 74.9261 10.2313 75.6651C10.2313 76.4042 9.63283 77.0057 8.89763 77.0057C8.16243 77.0057 7.56401 76.4042 7.56401 75.6651C7.56401 74.9261 8.16243 74.3245 8.89763 74.3245Z" fill="#100C25"/>
<path d="M47.6855 74.3245C48.4207 74.3245 49.0192 74.9261 49.0192 75.6651C49.0192 76.4042 48.4207 77.0057 47.6855 77.0057C46.9503 77.0057 46.3519 76.4042 46.3519 75.6651C46.3519 74.9261 46.9469 74.3245 47.6855 74.3245Z" fill="#100C25"/>
<path d="M36.5754 63.5859L27.0588 74.7989C26.7682 75.0979 26.5938 75.5139 26.6314 75.9676C26.6964 76.796 27.4179 77.4182 28.242 77.3529C28.8678 77.3048 29.3705 76.8751 29.5517 76.3114L36.9071 63.8265C37.0337 63.6065 36.7396 63.3934 36.5754 63.5859Z" fill="#AFAFAF"/>
</g>
<defs>
<clipPath id="clip0">
<rect width="126" height="104" fill="white"/>
</clipPath>
</defs>
</svg>
