<svg width="126" height="105" viewBox="0 0 126 105" fill="none" xmlns="http://www.w3.org/2000/svg">
<path d="M42.1527 100.14C42.1527 102.271 43.8728 104.003 45.9963 104.003H122.15C124.273 104.003 125.993 102.274 125.993 100.14V31.047H42.1527V100.14Z" fill="#100C25"/>
<path d="M122.16 9.15736H46.0066C43.8831 9.15736 42.1631 10.8864 42.1631 13.0211V31.0711H126V13.0211C126 10.8864 124.28 9.15736 122.16 9.15736Z" fill="#100C25"/>
<path d="M36.1241 100.14C36.1241 102.271 37.8441 104.003 39.9676 104.003H116.121C118.244 104.003 119.964 102.274 119.964 100.14V31.047H36.1241V100.14Z" fill="#F8F8F8"/>
<path d="M116.117 9.13673H39.9642C37.8407 9.13673 36.1206 10.8658 36.1206 13.0004V31.0505H119.958V12.997C119.961 10.8658 118.241 9.13673 116.117 9.13673Z" fill="#AFAFAF"/>
<path d="M59.4112 25.059C61.8474 25.059 63.8224 23.0737 63.8224 20.6247C63.8224 18.1757 61.8474 16.1904 59.4112 16.1904C56.9749 16.1904 55 18.1757 55 20.6247C55 23.0737 56.9749 25.059 59.4112 25.059Z" fill="#100C25"/>
<path d="M58.4811 18.2494C57.2124 18.2494 56.1865 17.2182 56.1865 15.9429V6.30084C56.1865 5.18711 56.9354 4.15931 58.0228 3.94962C59.4864 3.66432 60.7756 4.78836 60.7756 6.21147V9.13673H64.6602V6.43146C64.6602 3.12807 62.1844 0.23718 58.9051 0.0171838C55.3077 -0.223438 52.3054 2.64683 52.3054 6.2149V15.7435C52.3054 18.9816 54.6888 21.8278 57.8997 22.1269C58.2417 22.1578 58.5802 22.1612 58.9119 22.1406C61.3569 21.9722 61.1551 18.2528 58.7033 18.2528H58.4811V18.2494Z" fill="#F3F3F3"/>
<path d="M94.5846 25.059C97.0209 25.059 98.9958 23.0737 98.9958 20.6247C98.9958 18.1757 97.0209 16.1904 94.5846 16.1904C92.1484 16.1904 90.1734 18.1757 90.1734 20.6247C90.1734 23.0737 92.1484 25.059 94.5846 25.059Z" fill="#100C25"/>
<path d="M93.6545 18.2494C92.3859 18.2494 91.36 17.2182 91.36 15.9429V6.30084C91.36 5.18711 92.1089 4.15931 93.1963 3.94962C94.6599 3.66432 95.949 4.78836 95.949 6.21147V9.13673H99.8336V6.43146C99.8336 3.12807 97.3579 0.23718 94.0785 0.0171838C90.4812 -0.223438 87.4788 2.64683 87.4788 6.2149V15.7435C87.4788 18.9816 89.8622 21.8278 93.0732 22.1269C93.4151 22.1578 93.7537 22.1612 94.0854 22.1406C96.5304 21.9722 96.3286 18.2528 93.8768 18.2528H93.6545V18.2494Z" fill="#F3F3F3"/>
<path d="M77.5 75.5C85.3731 75.5 91.75 69.1231 91.75 61.25C91.75 53.3769 85.3731 47 77.5 47C69.6269 47 63.25 53.3769 63.25 61.25C63.25 69.1231 69.6269 75.5 77.5 75.5ZM77.5 82.625C67.9881 82.625 49 87.3987 49 96.875V104H106V96.875C106 87.3987 87.0119 82.625 77.5 82.625Z" fill="#E5E5E5"/>
<path d="M17.4037 81.3648H20.1589L21.1355 80.4231C17.7176 76.4471 15.6598 71.2853 15.6598 65.6701C15.6598 53.1492 25.809 43 38.3299 43C50.8508 43 61 53.1492 61 65.6701C61 78.191 50.8508 88.3402 38.3299 88.3402C32.7147 88.3402 27.5529 86.2824 23.5769 82.8645L22.6352 83.8411V86.5963L5.19668 104L-1.21636e-06 98.8033L17.4037 81.3648ZM38.3299 81.3648C47.0143 81.3648 54.0246 74.3545 54.0246 65.6701C54.0246 56.9857 47.0143 49.9754 38.3299 49.9754C29.6455 49.9754 22.6352 56.9857 22.6352 65.6701C22.6352 74.3545 29.6455 81.3648 38.3299 81.3648Z" fill="black"/>
</svg>
