<svg width="121" height="64" viewBox="0 0 121 64" fill="none" xmlns="http://www.w3.org/2000/svg">
<path d="M23.5495 -1.90735e-06V11.808H17.2775V0.191999H15.9335V26.848H17.2775V13.056H23.5495V27.328H24.8935V-1.90735e-06H23.5495ZM1.8215 24.16V13.664H11.9335V12.416H1.8215V2.528H12.3175V1.28H0.4775V25.408H4.2855C8.5735 25.408 11.4535 24.864 13.3735 23.968V22.624C11.0375 23.712 8.4135 24.16 4.1895 24.16H1.8215ZM54.2028 7.168V-1.90735e-06H52.8268V16.416H54.2028V8.416H58.4588V7.168H54.2028ZM45.2108 10.336H46.5548V0.671999H31.6748V1.92H45.2108V10.336ZM49.9788 13.056V11.808C47.9628 12.672 44.2508 12.96 39.5148 12.96H38.1068V6.208H36.7628V12.96H30.1068V14.208H39.3868C44.2508 14.208 48.2188 13.856 49.9788 13.056ZM43.3868 17.152C37.2748 17.152 31.9308 18.496 31.9308 22.208C31.9308 25.92 37.2748 27.264 43.3868 27.264C49.4988 27.264 54.8428 25.92 54.8428 22.208C54.8428 18.496 49.4988 17.152 43.3868 17.152ZM43.3868 26.016C38.2348 26.016 33.3068 25.024 33.3068 22.208C33.3068 19.392 38.2348 18.4 43.3868 18.4C48.5388 18.4 53.4668 19.392 53.4668 22.208C53.4668 25.024 48.5388 26.016 43.3868 26.016ZM85.816 1.248H62.776V2.496H84.472V20.192H85.816V1.248ZM87.896 24.48H60.888V25.728H87.896V24.48ZM116.981 9.728H95.2533V6.336H116.533V0.608H93.9413V1.824H115.221V5.152H93.9413V10.944H116.981V9.728ZM91.6693 13.824V15.04H104.501V18.624H105.845V15.04H118.677V13.824H91.6693ZM115.189 20.8H95.1893V17.472H93.8453V26.72H116.533V17.536H115.189V20.8ZM95.1893 25.504V21.984H115.189V25.504H95.1893ZM27.7735 47.072H23.9335V36H20.7655V63.328H23.9335V50.112H27.7735V47.072ZM3.7095 58.816V39.872H16.2535V36.992H0.4775V61.696H11.1655C13.7895 61.696 16.7335 61.216 18.3975 60.384V57.504C16.7335 58.304 13.9175 58.816 11.3255 58.816H3.7095ZM52.5708 56.32H55.7068V36H52.5708V39.04H48.0908V41.856H52.5708V45.696H48.0908V48.512H52.5708V56.32ZM46.4908 36.672H31.1308V51.456H46.4908V36.672ZM43.3548 48.704H34.2348V39.424H43.3548V48.704ZM35.6748 60.128V54.112H32.4427V62.976H56.2828V60.128H35.6748ZM86.264 36H83.096V56.288H86.264V36ZM70.68 46.112L78.552 51.936L80.312 49.6L71.832 43.424C72.184 42.208 72.44 40.864 72.472 39.456H79.512V36.704H61.816V39.456H69.304C68.984 44.768 66.072 48.608 61.464 49.248V52.16C65.528 51.744 68.792 49.504 70.68 46.112ZM66.296 60.096V54.272H63.096V62.976H87V60.096H66.296ZM116.277 42.496V36H113.109V56.288H116.277V45.536H120.117V42.496H116.277ZM111.125 50.24V47.52C109.365 48.288 106.229 48.704 102.517 48.704H95.7013V39.424H109.173V36.672H92.5013V51.456H102.325C106.197 51.456 109.461 50.976 111.125 50.24ZM96.6293 54.112H93.4293V62.976H117.013V60.096H96.6293V54.112Z" fill="#303164"/>
</svg>
